<svg id="Layer_1" enable-background="new 0 0 512 512" height="512" viewBox="0 0 512 512" width="512" xmlns="http://www.w3.org/2000/svg"><path d="m451.556 191.37 34.838 34.837c4.29 4.292 10.745 5.573 16.347 3.252 5.605-2.322 9.26-7.792 9.26-13.858v-136.334c0-8.284-6.716-15-15-15h-136.335c-6.067 0-11.536 3.655-13.858 9.26-2.321 5.605-1.038 12.057 3.252 16.347l34.839 34.837-112.833 112.831-117.926-117.926c-5.857-5.858-15.355-5.858-21.213 0l-102.927 102.926v-207.542c0-8.284-6.716-15-15-15s-15 6.716-15 15v482c0 8.284 6.716 15 15 15h482c8.284 0 15-6.716 15-15s-6.716-15-15-15h-81.4v-254.675zm-308.023-39.934 117.927 117.926c5.857 5.858 15.355 5.858 21.213 0l134.045-134.044c5.858-5.857 5.853-15.361 0-21.213l-19.838-19.838h85.12v85.121l-19.838-19.837c-5.857-5.858-15.355-5.858-21.213 0l-168.883 168.88-117.926-117.926c-5.858-5.859-15.357-5.857-21.213 0l-102.927 102.926v-48.462zm15 105.889 98.533 98.533v126.142h-98.533zm-128.533 98.532 98.533-98.533v224.676h-98.533zm355.6 126.143h-98.533v-126.143l98.533-98.532z"/></svg>